  <svg xmlns="http://www.w3.org/2000/svg" xmlns:xlink="http://www.w3.org/1999/xlink" width="100pt" height="100pt" viewBox="0 0 100 100" version="1.1">
  <g id="surface4664993">
  <path style=" stroke:none;fill-rule:nonzero;fill:rgb(100%,100%,100%);fill-opacity:1;" d="M 79.667969 79 L 42.332031 79 C 39.386719 79 37 76.613281 37 73.667969 L 37 25.332031 C 37 22.386719 39.386719 20 42.332031 20 L 79.664062 20 C 82.613281 20 85 22.386719 85 25.332031 L 85 73.664062 C 85 76.613281 82.613281 79 79.667969 79 Z M 79.667969 79 "/>
  <path style=" stroke:none;fill-rule:nonzero;fill:rgb(66, 153, 225);fill-opacity:1;" d="M 56.480469 78 L 78.101562 78 C 77.25 78.621094 76.179688 79 75 79 L 21 79 C 18.25 79 16 76.929688 16 74.390625 L 16 24.609375 C 16 22.070312 18.25 20 21 20 L 75 20 C 76.179688 20 77.25 20.378906 78.101562 21 L 50.988281 21 C 50.210938 24.371094 49.539062 27.769531 48.988281 31.160156 C 47.96875 37.371094 47.320312 43.710938 47.039062 50 L 54 50 C 54.269531 50 54.53125 50.109375 54.71875 50.300781 C 54.910156 50.5 55.011719 50.761719 55 51.03125 C 54.890625 54.328125 54.890625 57.679688 55 60.96875 C 55.03125 61.910156 55.070312 62.851562 55.121094 63.789062 C 55.148438 64.449219 55.179688 65.121094 55.238281 65.78125 C 55.480469 69.859375 55.898438 73.941406 56.480469 78 Z M 56.480469 78 "/>
  <path style=" stroke:none;fill-rule:nonzero;fill:rgb(14.509804%,14.901961%,18.431373%);fill-opacity:1;" d="M 80.25 19 L 20.75 19 C 17.578125 19 15 21.578125 15 24.75 L 15 74.25 C 15 77.421875 17.578125 80 20.75 80 L 80.25 80 C 83.421875 80 86 77.421875 86 74.25 L 86 24.75 C 86 21.578125 83.421875 19 80.25 19 Z M 84 74.25 C 84 76.320312 82.320312 78 80.25 78 L 20.75 78 C 18.679688 78 17 76.320312 17 74.25 L 17 24.75 C 17 22.679688 18.679688 21 20.75 21 L 80.25 21 C 82.320312 21 84 22.679688 84 24.75 Z M 84 74.25 "/>
  <path style=" stroke:none;fill-rule:nonzero;fill:rgb(14.509804%,14.901961%,18.431373%);fill-opacity:1;" d="M 56.78125 80 L 54.761719 80 C 54.699219 79.660156 54.648438 79.328125 54.609375 79 C 54.550781 78.671875 54.5 78.339844 54.460938 78 C 53.890625 73.988281 53.488281 69.949219 53.238281 65.921875 C 53.191406 65.261719 53.148438 64.601562 53.121094 63.941406 C 53.070312 62.96875 53.03125 62 53 61.03125 C 52.910156 58.039062 52.898438 55.011719 52.96875 52 L 46 52 C 45.730469 52 45.46875 51.890625 45.28125 51.691406 C 45.089844 51.5 44.988281 51.230469 45 50.960938 C 45.25 44.25 45.929688 37.46875 47.011719 30.839844 C 47.550781 27.550781 48.191406 24.261719 48.941406 21 C 49.011719 20.660156 49.078125 20.328125 49.160156 20 C 49.238281 19.671875 49.320312 19.339844 49.398438 19 L 51.460938 19 C 51.378906 19.339844 51.300781 19.671875 51.230469 20 C 51.140625 20.328125 51.058594 20.660156 50.988281 21 C 50.210938 24.371094 49.539062 27.769531 48.988281 31.160156 C 47.96875 37.371094 47.320312 43.710938 47.039062 50 L 54 50 C 54.269531 50 54.53125 50.109375 54.71875 50.300781 C 54.910156 50.5 55.011719 50.761719 55 51.03125 C 54.890625 54.328125 54.890625 57.679688 55 60.96875 C 55.03125 61.910156 55.070312 62.851562 55.121094 63.789062 C 55.148438 64.449219 55.179688 65.121094 55.238281 65.78125 C 55.480469 69.859375 55.898438 73.941406 56.480469 78 C 56.519531 78.339844 56.570312 78.671875 56.628906 79 C 56.671875 79.328125 56.71875 79.660156 56.78125 80 Z M 33 42 C 32.449219 42 32 41.554688 32 41 L 32 35 C 32 34.445312 32.449219 34 33 34 C 33.550781 34 34 34.445312 34 35 L 34 41 C 34 41.554688 33.550781 42 33 42 Z M 68 42 C 67.449219 42 67 41.554688 67 41 L 67 35 C 67 34.445312 67.449219 34 68 34 C 68.550781 34 69 34.445312 69 35 L 69 41 C 69 41.554688 68.550781 42 68 42 Z M 68 42 "/>
  <path style=" stroke:none;fill-rule:nonzero;fill:rgb(14.509804%,14.901961%,18.431373%);fill-opacity:1;" d="M 51.5 66.003906 C 40.59375 66.003906 31.921875 62.691406 26.539062 59.886719 C 26.050781 59.632812 25.859375 59.027344 26.113281 58.539062 C 26.367188 58.050781 26.972656 57.855469 27.464844 58.113281 C 32.726562 60.855469 41.261719 64.109375 51.992188 64 C 62.296875 63.902344 70.484375 60.746094 75.539062 58.113281 C 76.03125 57.855469 76.632812 58.050781 76.886719 58.539062 C 77.144531 59.027344 76.953125 59.632812 76.464844 59.886719 C 68.933594 63.808594 60.480469 65.921875 52.007812 66 C 51.839844 66.003906 51.667969 66.003906 51.5 66.003906 Z M 71.5 37 C 71.222656 37 71 36.777344 71 36.5 L 71 32 L 68.5 32 C 68.222656 32 68 31.777344 68 31.5 C 68 31.222656 68.222656 31 68.5 31 L 71.5 31 C 71.777344 31 72 31.222656 72 31.5 L 72 36.5 C 72 36.777344 71.777344 37 71.5 37 Z M 71.5 43 C 71.222656 43 71 42.777344 71 42.5 L 71 39.5 C 71 39.222656 71.222656 39 71.5 39 C 71.777344 39 72 39.222656 72 39.5 L 72 42.5 C 72 42.777344 71.777344 43 71.5 43 Z M 32 65.433594 C 31.941406 65.433594 31.882812 65.421875 31.824219 65.398438 C 29.933594 64.683594 28.066406 63.859375 26.273438 62.945312 C 26.027344 62.820312 25.929688 62.519531 26.054688 62.273438 C 26.179688 62.027344 26.480469 61.929688 26.726562 62.054688 C 28.484375 62.949219 30.320312 63.761719 32.175781 64.464844 C 32.433594 64.5625 32.566406 64.851562 32.46875 65.109375 C 32.390625 65.308594 32.203125 65.433594 32 65.433594 Z M 37 67.058594 C 36.957031 67.058594 36.910156 67.050781 36.867188 67.039062 C 35.863281 66.765625 34.84375 66.453125 33.839844 66.121094 C 33.578125 66.03125 33.4375 65.75 33.527344 65.484375 C 33.613281 65.226562 33.898438 65.085938 34.160156 65.171875 C 35.144531 65.5 36.144531 65.804688 37.132812 66.074219 C 37.398438 66.148438 37.554688 66.421875 37.484375 66.6875 C 37.421875 66.910156 37.21875 67.058594 37 67.058594 Z M 45 68.621094 C 44.980469 68.621094 44.960938 68.621094 44.941406 68.617188 C 43.261719 68.417969 41.5625 68.136719 39.894531 67.777344 C 39.625 67.71875 39.453125 67.453125 39.511719 67.183594 C 39.570312 66.914062 39.835938 66.746094 40.105469 66.800781 C 41.742188 67.152344 43.410156 67.429688 45.058594 67.625 C 45.332031 67.65625 45.527344 67.90625 45.496094 68.183594 C 45.464844 68.4375 45.25 68.621094 45 68.621094 Z M 45 68.621094 "/>
  <path style=" stroke:none;fill-rule:nonzero;fill:rgb(14.509804%,14.901961%,18.431373%);fill-opacity:1;" d="M 48 68.898438 C 47.988281 68.898438 47.980469 68.898438 47.96875 68.894531 C 46.960938 68.832031 45.941406 68.738281 44.941406 68.617188 C 44.667969 68.585938 44.472656 68.339844 44.503906 68.0625 C 44.535156 67.789062 44.78125 67.585938 45.058594 67.625 C 46.039062 67.742188 47.039062 67.835938 48.03125 67.898438 C 48.308594 67.914062 48.515625 68.152344 48.5 68.429688 C 48.480469 68.695312 48.261719 68.898438 48 68.898438 Z M 48 68.898438 "/>
  <path style=" stroke:none;fill-rule:nonzero;fill:rgb(14.509804%,14.901961%,18.431373%);fill-opacity:1;" d="M 51.480469 69.007812 C 51.148438 69.007812 50.820312 69.007812 50.492188 69 C 49.632812 68.984375 48.792969 68.949219 47.96875 68.894531 C 47.691406 68.878906 47.484375 68.640625 47.5 68.363281 C 47.519531 68.089844 47.753906 67.867188 48.03125 67.898438 C 48.84375 67.949219 49.667969 67.984375 50.507812 68 C 53.648438 68.058594 56.816406 67.839844 59.921875 67.351562 C 60.191406 67.304688 60.449219 67.492188 60.492188 67.765625 C 60.535156 68.039062 60.351562 68.296875 60.078125 68.339844 C 57.242188 68.78125 54.351562 69.007812 51.480469 69.007812 Z M 65 67.316406 C 64.777344 67.316406 64.574219 67.167969 64.515625 66.941406 C 64.449219 66.671875 64.609375 66.402344 64.878906 66.335938 C 65.832031 66.089844 66.796875 65.816406 67.742188 65.523438 C 68.007812 65.4375 68.289062 65.585938 68.371094 65.851562 C 68.453125 66.113281 68.304688 66.394531 68.039062 66.476562 C 67.078125 66.777344 66.09375 67.054688 65.121094 67.300781 C 65.082031 67.3125 65.039062 67.316406 65 67.316406 Z M 65 67.316406 "/>
  <path style=" stroke:none;fill-rule:nonzero;fill:rgb(14.509804%,14.901961%,18.431373%);fill-opacity:1;" d="M 67.894531 66.5 C 67.679688 66.5 67.480469 66.363281 67.414062 66.148438 C 67.332031 65.886719 67.480469 65.605469 67.742188 65.523438 C 70.683594 64.605469 73.554688 63.4375 76.273438 62.054688 C 76.519531 61.925781 76.820312 62.027344 76.945312 62.273438 C 77.070312 62.519531 76.972656 62.820312 76.726562 62.945312 C 73.957031 64.355469 71.035156 65.542969 68.039062 66.476562 C 67.992188 66.492188 67.941406 66.5 67.894531 66.5 Z M 67.894531 66.5 "/>
  </g>
  </svg>
